<mxfile host="app.diagrams.net" modified="2023-12-24T17:56:13.868Z" agent="Mozilla/5.0 (Windows NT 10.0; Win64; x64) AppleWebKit/537.36 (KHTML, like Gecko) Chrome/118.0.0.0 YaBrowser/23.11.0.0 Safari/537.36" version="22.1.11" etag="8GvmkcgZ74JrMSpPM12M" type="github">
  <diagram name="Страница — 1" id="rX8C_E-mcGgzt1EAjT2C">
    <mxGraphModel>
      <root>
        <mxCell id="0" />
        <mxCell id="1" parent="0" />
      </root>
    </mxGraphModel>
  </diagram>
</mxfile>
